<?xml version="1.0" encoding="iso-8859-1"?>
<!-- Generator: Adobe Illustrator 19.0.0, SVG Export Plug-In . SVG Version: 6.00 Build 0)  -->
<svg version="1.1" id="Capa_1" xmlns="http://www.w3.org/2000/svg" xmlns:xlink="http://www.w3.org/1999/xlink" x="0px" y="0px"
	 viewBox="0 0 512.002 512.002" style="enable-background:new 0 0 512.002 512.002;" xml:space="preserve">
<path style="fill:#FFB655;" d="M339.49,114.537h158.84c7.551,0,13.672,6.121,13.672,13.672l0,0c0,7.551-6.121,13.672-13.672,13.672
	H339.49L339.49,114.537L339.49,114.537z"/>
<path style="opacity:0.1;enable-background:new    ;" d="M376.601,114.537H339.49v27.343h49.676
	C378.59,136.739,375.97,124.408,376.601,114.537z"/>
<path style="fill:#FFB655;" d="M110.544,455.122L110.544,455.122c11.386,0,21.237-7.922,23.681-19.042l23.595-107.387h-28.43
	l-41.005,92.344C81.266,437.069,93.002,455.122,110.544,455.122z"/>
<path style="fill:#C27C59;" d="M360.392,125.32c-1.476-37.141-30.926-66.741-68.06-68.37c-40.855-1.792-74.54,30.799-74.54,71.258
	c0,20.783-3.666,62.544-42.952,83.74c-1.598,0.758-3.171,1.559-4.732,2.38c-0.219,0.102-0.423,0.212-0.644,0.312l0.041-0.004
	c-36.125,19.238-62.041,55.119-67.483,97.419c-1.577,12.257-5.973,23.983-12.84,34.258c-17.75,26.557-49.303,73.766-49.303,73.766
	c-10.004,14.967,0.725,35.041,18.727,35.041l0,0c8.904,0,16.973-5.245,20.587-13.383l50.197-113.046h28.43l-21.038,95.748
	c-3.463,15.76,8.536,30.682,24.673,30.682l0,0c13.997,0,25.325-11.381,25.261-25.377l-0.418-90.884
	c-0.026-5.608,4.513-10.168,10.122-10.168h34.414c60.01,0,108.657-48.647,108.657-108.657v-20.497
	c0-5.677,0.743-15.054,12.306-37.252c0.143-0.263,0.274-0.534,0.414-0.799c0.15-0.286,0.281-0.548,0.434-0.838l-0.005-0.001
	C358.029,150.115,360.898,138.079,360.392,125.32z"/>
<path style="fill:#FFDAB5;" d="M212.54,328.692h18.293c60.01,0,108.657-48.647,108.657-108.657v-20.497
	c0-1.417,0.047-3.064,0.296-5.083C289.578,193.653,215.077,196.959,212.54,328.692z"/>
<path style="opacity:0.1;enable-background:new    ;" d="M250.786,326.857c-61.397-12.81-74.314-75.075-72.015-117.18
	c-1.272,0.779-2.577,1.54-3.933,2.272c-1.598,0.758-3.171,1.559-4.732,2.38c-0.219,0.102-0.423,0.212-0.644,0.312l0.041-0.004
	c-36.125,19.238-62.041,55.119-67.483,97.419c-1.577,12.257-5.973,23.983-12.84,34.258c-17.75,26.557-49.303,73.766-49.303,73.766
	c-10.004,14.967,0.725,35.041,18.727,35.041l0,0c8.904,0,16.973-5.245,20.587-13.383l50.197-113.046h28.43L136.78,424.44
	c-3.463,15.76,8.536,30.682,24.673,30.682l0,0c13.997,0,25.325-11.381,25.261-25.377l-0.418-90.884
	c-0.026-5.608,4.513-10.168,10.122-10.168h34.414C237.65,328.692,244.317,328.058,250.786,326.857z"/>
<ellipse style="fill:#FF6E6E;" cx="298.171" cy="134.561" rx="21.04" ry="16.754"/>
<path style="fill:#414B58;" d="M327.738,124.327c-4.142,0-7.5-3.358-7.5-7.5c0-4.017-3.268-7.285-7.285-7.285
	s-7.285,3.268-7.285,7.285c0,4.142-3.358,7.5-7.5,7.5s-7.5-3.358-7.5-7.5c0-12.288,9.997-22.285,22.285-22.285
	s22.285,9.997,22.285,22.285C335.238,120.969,331.88,124.327,327.738,124.327z"/>
<path style="fill:#FFB655;" d="M230.668,179.239c-57.732-38.6-154.065-45.07-212.453-44.662
	c-14.972,0.105-23.47,17.106-14.623,29.185c43.905,59.95,127.391,109.566,194.488,110.128c29.537,0.247,54.103-23.756,53.691-53.291
	C251.534,203.674,243.296,188.683,230.668,179.239z"/>
<path style="opacity:0.1;enable-background:new    ;" d="M63.776,135.714c-16.576-0.949-32.086-1.23-45.562-1.136
	c-14.972,0.105-23.47,17.106-14.623,29.185c43.905,59.95,127.391,109.566,194.488,110.128c0.002,0,0.004,0,0.006,0
	C148.119,268.543,81.568,180.582,63.776,135.714z"/>
<path style="opacity:0.08;enable-background:new    ;" d="M113.151,180.686c-1.154-3.978-5.316-6.27-9.292-5.116
	c-9.787,2.837-42.162,16.18-63.412,28.305c3.969,3.535,8.058,6.98,12.246,10.331c18.892-10.112,45.725-21.441,55.342-24.228
	C112.014,188.824,114.304,184.664,113.151,180.686z M61.273,162.417c-0.655-4.09-4.499-6.875-8.591-6.221
	c-8.347,1.335-27.329,7.479-43.685,14.635c3.221,4.052,6.612,8.049,10.166,11.977c13.931-5.77,29.272-10.742,35.889-11.801
	C59.142,170.354,61.927,166.507,61.273,162.417z M216.867,217.866c-1.795-3.732-6.276-5.302-10.01-3.508
	c-0.666,0.321-48.576,23.552-80.205,43.665c5.976,2.437,11.968,4.625,17.946,6.542c4.426-2.627,9.466-5.532,15.209-8.743
	c23.026-12.871,46.464-24.538,53.552-27.947C217.092,226.081,218.662,221.599,216.867,217.866z M165.004,199.192
	c-1.521-3.854-5.876-5.742-9.73-4.223c-8.059,3.181-50.331,22.435-75.685,38.512c4.751,3.039,9.577,5.94,14.456,8.697
	c22.04-12.943,54.895-28.582,66.737-33.256C164.634,207.401,166.525,203.045,165.004,199.192z"/>
<g>
</g>
<g>
</g>
<g>
</g>
<g>
</g>
<g>
</g>
<g>
</g>
<g>
</g>
<g>
</g>
<g>
</g>
<g>
</g>
<g>
</g>
<g>
</g>
<g>
</g>
<g>
</g>
<g>
</g>
</svg>
